<svg width="30" height="30" viewBox="0 0 30 30" fill="none" xmlns="http://www.w3.org/2000/svg">
<path d="M3.74707 13.8725V20.1138C3.74707 23.9838 3.74707 25.92 4.66457 26.765C5.10207 27.1688 5.65457 27.4225 6.24332 27.49C7.47707 27.6313 8.91832 26.3563 11.7996 23.8075C13.0746 22.6813 13.7108 22.1175 14.4471 21.97C14.8096 21.895 15.1846 21.895 15.5471 21.97C16.2846 22.1175 16.9208 22.6813 18.1946 23.8075C21.0758 26.3563 22.5171 27.6313 23.7508 27.4888C24.3383 27.4225 24.8921 27.1688 25.3296 26.765C26.2471 25.92 26.2471 23.985 26.2471 20.1138V13.8713C26.2471 8.51125 26.2471 5.83125 24.5996 4.165C22.9521 2.49875 20.2996 2.5 14.9971 2.5C9.69457 2.5 7.04207 2.5 5.39457 4.165C4.38582 5.185 3.99457 6.5875 3.84332 8.75M18.7471 7.5H11.2471" stroke="black" stroke-width="2" stroke-linecap="round"/>
</svg>
